<?xml version="1.0" encoding="UTF-8" standalone="no"?>
<!--?xml version="1.0" encoding="UTF-8" standalone="no"?-->

<svg
   width="322.89499"
   height="583.82391"
   viewBox="0 0 322.89499 583.82394"
   version="1.1"
   id="svg36"
   xmlns="http://www.w3.org/2000/svg"
   xmlns:svg="http://www.w3.org/2000/svg">
  <defs
     id="defs1">
    <!-- Wave pattern segment -->
    <path
       id="wave"
       d="M 0,0 C 10,-10 20,-10 30,0 40,10 50,10 60,0"
       fill="none"
       stroke="#000000"
       stroke-width="2" />
  </defs>
  <!-- Top edge -->
  <path
     id="use1"
     style="baseline-shift:baseline;display:inline;overflow:visible;opacity:1;stroke:#fc6c85;stroke-width:5;stroke-dasharray:none;stroke-dashoffset:9.4439;stroke-opacity:1;enable-background:accumulate;stop-color:#000000;stop-opacity:1"
     d="m 25.402344,10.216797 c -4.02954,0 -8.007952,1.944948 -11.888672,5.673828 -3.8807303,3.72888 -5.9160157,7.563864 -5.9160158,11.464844 0,3.90097 2.0352855,7.735964 5.9160158,11.464843 3.70221,3.55735 5.458984,7.007319 5.458984,10.392579 0,3.38526 -1.756774,6.837181 -5.458984,10.394531 -3.8807303,3.72889 -5.9160157,7.563874 -5.9160158,11.464844 0,3.90098 2.0352855,7.735953 5.9160158,11.464843 3.70221,3.55735 5.458984,7.009272 5.458984,10.394532 0,3.38526 -1.756774,6.835216 -5.458984,10.392579 -3.8807303,3.72888 -5.9160157,7.56386 -5.9160158,11.46484 0,3.90098 2.0352855,7.73792 5.9160158,11.4668 3.70221,3.55735 5.458984,7.00732 5.458984,10.39258 0,3.38525 -1.756774,6.83523 -5.458984,10.39258 -3.8807303,3.72889 -5.9160157,7.56581 -5.9160158,11.46679 0,3.90098 2.0352855,7.73597 5.9160158,11.46485 3.70221,3.55735 5.458984,7.00731 5.458984,10.39257 0,3.38526 -1.756774,6.8372 -5.458984,10.39454 -3.8807303,3.72889 -5.9160157,7.56386 -5.9160158,11.46484 0,3.90097 2.0352855,7.73595 5.9160158,11.46484 3.70221,3.55735 5.458984,7.00927 5.458984,10.39453 0,3.38526 -1.756774,6.83523 -5.458984,10.39258 -3.8807303,3.72888 -5.9160157,7.56388 -5.9160158,11.46485 0,3.90098 2.0352855,7.73791 5.9160158,11.46679 3.70221,3.55735 5.458984,7.00732 5.458984,10.39258 0,3.38526 -1.756774,6.83522 -5.458984,10.39258 -3.8807303,3.72888 -5.9160157,7.56583 -5.9160158,11.4668 0,3.90098 2.0352855,7.73596 5.9160158,11.46484 3.70221,3.55735 5.458984,7.00732 5.458984,10.39258 0,3.38526 -1.756774,6.83718 -5.458984,10.39453 -3.8807303,3.72888 -5.9160157,7.56386 -5.9160158,11.46484 0,3.90098 2.0352855,7.73597 5.9160158,11.46485 3.70221,3.55735 5.458984,7.00927 5.458984,10.39453 0,3.38525 -1.756774,6.83524 -5.458984,10.39258 -3.8807303,3.72889 -5.9160157,7.56386 -5.9160158,11.46484 0,3.90098 2.0352855,7.73792 5.9160158,11.4668 3.70221,3.55736 5.458984,7.00732 5.458984,10.39257 0,3.38527 -1.756774,6.83523 -5.458984,10.39258 -3.8807303,3.72888 -5.9160157,7.56582 -5.9160158,11.4668 0,3.90098 2.0352855,7.73596 5.9160158,11.46484 3.70221,3.55736 5.458984,7.00732 5.458984,10.39258 0,3.38526 -1.756774,6.83718 -5.458984,10.39453 -3.8807303,3.72889 -5.9160157,7.56388 -5.9160158,11.46485 0,3.90098 2.0352855,7.73595 5.9160158,11.46484 3.70221,3.55735 5.458984,7.00927 5.458984,10.39453 0,3.38526 -1.756774,6.83523 -5.458984,10.39258 -3.8807303,3.72888 -5.9160157,7.56386 -5.9160158,11.46484 0,3.90098 2.0352855,7.73596 5.9160158,11.46485 l 0.04297,-0.043 c 3.469727,3.44025 5.117187,6.78265 5.117187,10.0625 0,3.38525 -1.756774,6.83524 -5.458984,10.39258 -3.8807305,3.72889 -5.9160159,7.56386 -5.9160159,11.46484 0,3.90098 2.0352854,7.73791 5.9160159,11.4668 3.88073,3.72888 7.863028,5.67187 11.892578,5.67187 4.02954,0 8.005989,-1.94299 11.886719,-5.67187 3.70221,-3.55736 7.305985,-5.25781 10.859375,-5.25781 3.5534,0 7.157165,1.70045 10.859375,5.25781 3.88073,3.72888 7.859132,5.67187 11.888671,5.67187 4.02954,0 8.009896,-1.94299 11.890626,-5.67187 3.702209,-3.55736 7.305974,-5.25781 10.859374,-5.25781 3.55339,0 7.157167,1.70045 10.859377,5.25781 3.88073,3.72888 7.86107,5.67187 11.89062,5.67187 4.02954,0 8.00795,-1.94299 11.88867,-5.67187 3.70221,-3.55736 7.30793,-5.25781 10.86133,-5.25781 3.55339,0 7.15521,1.70045 10.85742,5.25781 3.88073,3.72888 7.85914,5.67187 11.88868,5.67187 4.02955,0 8.00795,-1.94299 11.88867,-5.67187 3.70222,-3.55736 7.30793,-5.25781 10.86133,-5.25781 3.55339,0 7.15521,1.70045 10.85742,5.25781 3.88073,3.72888 7.86304,5.67187 11.89258,5.67187 4.02954,0 8.00599,-1.94299 11.88672,-5.67187 3.70221,-3.55736 7.30792,-5.25781 10.86132,-5.25781 3.55339,0 7.15521,1.70045 10.85742,5.25781 3.88073,3.72888 7.86303,5.67187 11.89258,5.67187 4.02954,0 8.00794,-1.94299 11.88868,-5.67187 3.7022,-3.55736 7.30403,-5.25781 10.85742,-5.25781 3.5534,0 7.15911,1.70045 10.86132,5.25781 3.88073,3.72888 7.85718,5.67187 11.88672,5.67187 4.02954,0 8.00991,-1.94299 11.89063,-5.67187 3.88073,-3.72889 5.91601,-7.56582 5.91601,-11.4668 0,-3.90098 -2.03528,-7.73595 -5.91601,-11.46484 -3.70221,-3.55734 -5.45899,-7.00733 -5.45899,-10.39258 10e-6,-0.42315 0.0287,-0.84617 0.084,-1.27149 0.3869,-2.97718 2.13561,-6.01041 5.375,-9.12304 3.88073,-3.72889 5.91601,-7.56387 5.91601,-11.46485 0,-3.90098 -2.03528,-7.73596 -5.91601,-11.46484 -3.70221,-3.55735 -5.45899,-7.00928 -5.45899,-10.39453 0,-3.38526 1.75678,-6.83523 5.45899,-10.39258 3.88073,-3.72889 5.91601,-7.56386 5.91601,-11.46484 0,-3.90097 -2.03528,-7.73792 -5.91601,-11.4668 -3.70221,-3.55735 -5.45899,-7.00732 -5.45899,-10.39258 0,-3.38526 1.75678,-6.83523 5.45899,-10.39258 3.88073,-3.72888 5.91601,-7.56581 5.91601,-11.46679 0,-3.90097 -2.03528,-7.73596 -5.91601,-11.46485 -3.70221,-3.55735 -5.45899,-7.00731 -5.45899,-10.39258 0,-3.38524 1.75678,-6.83718 5.45899,-10.39453 3.88073,-3.72888 5.91601,-7.56386 5.91601,-11.46484 0,-3.90098 -2.03528,-7.73595 -5.91601,-11.46484 -3.70221,-3.55734 -5.45899,-7.00928 -5.45899,-10.39453 0,-3.38525 1.75678,-6.83523 5.45899,-10.39258 3.88073,-3.72888 5.91601,-7.56387 5.91601,-11.46485 0,-3.90061 -2.036,-7.73628 -5.91601,-11.46484 v -0.002 c -3.70078,-3.55664 -5.45899,-7.00797 -5.45899,-10.39258 0,-3.38526 1.75678,-6.83523 5.45899,-10.39258 3.88073,-3.72889 5.91601,-7.56582 5.91601,-11.4668 0,-3.90098 -2.03528,-7.73596 -5.91601,-11.46484 -3.70221,-3.55735 -5.45899,-7.00732 -5.45899,-10.39258 0,-3.38526 1.75678,-6.83718 5.45899,-10.39453 3.88073,-3.72889 5.91601,-7.56386 5.91601,-11.46484 0,-3.90097 -2.03528,-7.73596 -5.91601,-11.46485 -3.70221,-3.55735 -5.45899,-7.00927 -5.45899,-10.39453 0,-3.38526 1.75678,-6.83523 5.45899,-10.39258 3.88073,-3.72889 5.91601,-7.56387 5.91601,-11.46484 0,-3.90098 -2.03528,-7.73595 -5.91601,-11.46484 -3.70221,-3.55734 -5.45899,-7.00928 -5.45899,-10.39454 0,-3.38526 1.75678,-6.83522 5.45899,-10.39257 3.88073,-3.72888 5.91601,-7.56387 5.91601,-11.46485 0,-3.90098 -2.03528,-7.7379 -5.91601,-11.46679 -3.70221,-3.55734 -5.45899,-7.00733 -5.45899,-10.39258 0,-3.38526 1.75678,-6.83718 5.45899,-10.39453 3.88073,-3.72888 5.91601,-7.56387 5.91601,-11.46485 0,-3.90098 -2.03528,-7.73596 -5.91601,-11.46484 -3.70221,-3.557353 -5.45899,-7.007319 -5.45899,-10.392579 0,-3.38526 1.75678,-6.837182 5.45899,-10.394532 3.88073,-3.72889 5.91601,-7.563863 5.91601,-11.464843 0,-3.90097 -2.03528,-7.735954 -5.91601,-11.464844 l -0.043,0.04297 c -3.46895,-3.439859 -5.11719,-6.78301 -5.11719,-10.0625 0,-3.38526 1.75482,-6.835229 5.45703,-10.392579 3.88073,-3.728889 5.91797,-7.563873 5.91797,-11.464843 0,-3.90098 -2.03724,-7.735954 -5.91797,-11.464844 -3.88073,-3.72888 -7.85717,-5.673828 -11.88672,-5.673828 -4.02955,0 -8.01184,1.944948 -11.89257,5.673828 -3.70221,3.557351 -7.30404,5.255859 -10.85743,5.255859 -3.55338,0 -7.15911,-1.698499 -10.86132,-5.255859 -3.88073,-3.72888 -7.85913,-5.673828 -11.88868,-5.673828 -4.02953,0 -8.00599,1.944948 -11.88671,5.673828 -3.70221,3.55736 -7.30793,5.255859 -10.86133,5.255859 -3.55339,0 -7.15521,-1.698499 -10.85742,-5.255859 -3.88073,-3.72888 -7.86303,-5.673828 -11.89258,-5.673828 -4.02954,0 -8.00794,1.944948 -11.88867,5.673828 -3.70221,3.55736 -7.30404,5.255859 -10.85743,5.255859 -3.55339,0 -7.15911,-1.698499 -10.86132,-5.255859 -3.88073,-3.72888 -7.85914,-5.673828 -11.88868,-5.673828 -4.02954,0 -8.00795,1.944948 -11.88867,5.673828 l 1.03125,1.070313 c 3.7022,-3.55736 7.30403,-5.25586 10.85742,-5.25586 3.55339,0 7.15911,1.698499 10.86133,5.25586 3.88072,3.72888 7.85912,5.671875 11.88867,5.671874 4.02954,0 8.00795,-1.942995 11.88868,-5.671874 3.70221,-3.55736 7.30403,-5.25586 10.85742,-5.25586 3.5534,0 7.15912,1.698499 10.86133,5.25586 3.88073,3.72888 7.85913,5.671875 11.88867,5.671874 4.02955,0 8.00989,-1.942995 11.89062,-5.671874 3.7022,-3.55736 7.30403,-5.25586 10.85742,-5.25586 3.5534,0 7.15912,1.698499 10.86133,5.25586 3.88072,3.72888 7.85913,5.671875 11.88867,5.671874 4.02947,-7.5e-5 8.00802,-1.943067 11.88868,-5.671874 3.70221,-3.55736 7.30793,-5.25586 10.86132,-5.25586 3.55339,0 7.15522,1.698499 10.85743,5.25586 3.70221,3.557349 5.46093,7.009271 5.46093,10.394531 0,3.38525 -1.75872,6.835228 -5.46093,10.392578 -3.88073,3.72889 -5.91407,7.563864 -5.91407,11.464844 0,3.90098 2.03334,7.737906 5.91407,11.466797 l 0.043,-0.04297 c 3.4691,3.439943 5.11914,6.780997 5.11914,10.060547 0,3.38526 -1.75872,6.835228 -5.46094,10.392578 -3.88072,3.72888 -5.91406,7.565817 -5.91406,11.466797 0,3.90098 2.03334,7.735959 5.91406,11.464839 3.70222,3.55736 5.46094,7.00732 5.46094,10.39258 0,3.38526 -1.75872,6.83718 -5.46094,10.39453 -3.88072,3.72888 -5.91406,7.56387 -5.91406,11.46485 0,3.90097 2.03334,7.73596 5.91406,11.46484 3.70222,3.55735 5.46094,7.00927 5.46094,10.39453 0,3.38526 -1.75872,6.83523 -5.46094,10.39258 -3.88072,3.72888 -5.91406,7.56387 -5.91406,11.46484 0,3.90098 2.03334,7.73596 5.91406,11.46485 3.70222,3.55735 5.46094,7.00927 5.46094,10.39453 0,3.38526 -1.75872,6.83522 -5.46094,10.39258 -3.88072,3.72888 -5.91406,7.56386 -5.91406,11.46484 0,3.90098 2.03334,7.73791 5.91406,11.4668 3.70222,3.55735 5.46094,7.00733 5.46094,10.39258 0,3.38526 -1.75872,6.83717 -5.46094,10.39453 -3.88072,3.72888 -5.91406,7.56386 -5.91406,11.46484 0,3.90098 2.03334,7.73596 5.91406,11.46484 3.70222,3.55737 5.46094,7.00732 5.46094,10.39258 0,3.38526 -1.75872,6.83718 -5.46094,10.39453 -3.88072,3.72888 -5.91406,7.56387 -5.91406,11.46485 0,3.90097 2.03334,7.73596 5.91406,11.46484 3.70222,3.55735 5.46094,7.00927 5.46094,10.39453 0,3.38526 -1.75872,6.83523 -5.46094,10.39258 -3.88072,3.72888 -5.91406,7.56388 -5.91406,11.46485 0,3.90098 2.03334,7.73791 5.91406,11.46679 3.70222,3.55735 5.46094,7.00732 5.46094,10.39258 0,3.38526 -1.75872,6.83522 -5.46094,10.39258 -3.88072,3.72888 -5.91406,7.56582 -5.91406,11.46679 0,3.90099 2.03334,7.73597 5.91406,11.46485 3.70222,3.55735 5.46094,7.00733 5.46094,10.39258 0,3.38526 -1.75872,6.83717 -5.46094,10.39453 -3.88072,3.72888 -5.91406,7.56386 -5.91406,11.46484 0,3.90098 2.03334,7.73597 5.91406,11.46485 3.70222,3.55736 5.46094,7.00928 5.46094,10.39453 0,3.38526 -1.75872,6.83523 -5.46094,10.39258 -3.88072,3.72888 -5.91406,7.56386 -5.91406,11.46484 0,3.90097 2.03334,7.73792 5.91406,11.4668 3.70222,3.55736 5.46094,7.00731 5.46094,10.39257 0,2.53895 -0.98896,5.1144 -3.04493,7.74414 -0.68532,0.87659 -1.49046,1.7591 -2.41601,2.64844 -0.97018,0.93222 -1.8242,1.87137 -2.56055,2.81641 -2.20905,2.83512 -3.35351,5.72465 -3.35351,8.65039 v 0.002 c 5e-5,3.90092 2.03339,7.73405 5.91406,11.46289 3.70222,3.55735 5.46094,7.00732 5.46094,10.39258 0,3.38526 -1.75872,6.83718 -5.46094,10.39453 -3.7022,3.55735 -7.30599,5.25586 -10.85938,5.25586 -3.55339,0 -7.15521,-1.69851 -10.85742,-5.25586 -3.88073,-3.72889 -7.86107,-5.67187 -11.89062,-5.67187 -0.5037,0 -1.00581,0.0314 -1.50782,0.0918 -3.51402,0.42289 -6.98522,2.3173 -10.38086,5.58008 -3.7022,3.55735 -7.30403,5.25586 -10.85742,5.25586 -3.5534,0 -7.15912,-1.69851 -10.86132,-5.25586 -3.88073,-3.72889 -7.85914,-5.67187 -11.88868,-5.67187 -4.02955,0 -8.00989,1.94298 -11.89062,5.67187 -3.7022,3.55735 -7.30403,5.25586 -10.85742,5.25586 -3.55339,0 -7.15911,-1.69851 -10.86133,-5.25586 -3.88072,-3.72889 -7.85913,-5.67187 -11.88867,-5.67187 -4.02955,0 -8.00795,1.94298 -11.88868,5.67187 -3.70221,3.55735 -7.30792,5.25586 -10.86132,5.25586 -3.55339,0 -7.15522,-1.69851 -10.85743,-5.25586 -3.88073,-3.72889 -7.85913,-5.67187 -11.88867,-5.67187 -4.02955,0 -8.01185,1.94298 -11.89258,5.67187 -3.70221,3.55735 -7.30403,5.25586 -10.85742,5.25586 -3.5534,0 -7.15912,-1.69851 -10.86133,-5.25586 -3.88073,-3.72889 -7.859127,-5.67187 -11.888667,-5.67187 -4.02955,0 -8.009895,1.94298 -11.890624,5.67187 -3.70221,3.55735 -7.305986,5.25586 -10.859376,5.25586 -3.553389,0 -7.157164,-1.69851 -10.859374,-5.25586 -3.88073,-3.72889 -7.859122,-5.67187 -11.888672,-5.67187 -4.02954,0 -8.007942,1.94298 -11.888672,5.67187 -3.70221,3.55735 -7.304032,5.25586 -10.857422,5.25586 -3.5534,0 -7.159118,-1.69851 -10.861328,-5.25586 -3.70221,-3.55735 -5.4570315,-7.00927 -5.4570315,-10.39453 0,-3.38526 1.7548215,-6.83523 5.4570315,-10.39258 3.88073,-3.72888 5.914062,-7.56387 5.914062,-11.46484 0,-3.90098 -2.033332,-7.73792 -5.914062,-11.4668 l -0.04492,0.0449 c -3.468329,-3.43953 -5.1171876,-6.7833 -5.1171876,-10.0625 0,-3.38526 1.7587176,-6.83521 5.4609376,-10.39257 3.88072,-3.72888 5.914062,-7.56387 5.914062,-11.46485 0,-3.90098 -2.033342,-7.73791 -5.914062,-11.46679 -3.70222,-3.55735 -5.4609376,-7.00732 -5.4609376,-10.39258 0,-3.38525 1.7587176,-6.83717 5.4609376,-10.39453 3.88072,-3.72888 5.914062,-7.56387 5.914062,-11.46485 0,-3.90098 -2.033342,-7.73596 -5.914062,-11.46484 -3.70222,-3.55735 -5.4609376,-7.00732 -5.4609376,-10.39258 0,-3.38526 1.7587176,-6.83718 5.4609376,-10.39453 3.88072,-3.72889 5.914062,-7.56387 5.914062,-11.46485 0,-3.90096 -2.033342,-7.73595 -5.914062,-11.46484 -3.70222,-3.55735 -5.4609376,-7.00927 -5.4609376,-10.39453 0,-3.38526 1.7587176,-6.83523 5.4609376,-10.39258 3.88072,-3.72888 5.914062,-7.56387 5.914062,-11.46484 0,-3.90098 -2.033342,-7.73792 -5.914062,-11.4668 -3.70222,-3.55735 -5.4609376,-7.00732 -5.4609376,-10.39258 0,-3.38526 1.7587176,-6.83521 5.4609376,-10.39257 3.88072,-3.72889 5.914062,-7.56583 5.914062,-11.4668 0,-3.90098 -2.033342,-7.73596 -5.914062,-11.46485 -3.70222,-3.55735 -5.4609376,-7.00731 -5.4609376,-10.39257 0,-3.38525 1.7587176,-6.83719 5.4609376,-10.39454 3.88072,-3.72888 5.914062,-7.56386 5.914062,-11.46484 0,-3.90098 -2.033342,-7.73596 -5.914062,-11.46484 -3.70222,-3.55735 -5.4609376,-7.00927 -5.4609376,-10.39453 0,-3.38525 1.7587176,-6.83524 5.4609376,-10.39258 3.88072,-3.72889 5.914062,-7.56387 5.914062,-11.46485 0,-3.90098 -2.033342,-7.73791 -5.914062,-11.46679 -3.70222,-3.55736 -5.4609376,-7.00732 -5.4609376,-10.39258 0,-3.38526 1.7587176,-6.83523 5.4609376,-10.39258 3.88072,-3.72888 5.914062,-7.56582 5.914062,-11.4668 0,-3.90097 -2.033342,-7.73596 -5.914062,-11.46484 -3.70222,-3.55735 -5.4609376,-7.00732 -5.4609376,-10.39258 0,-3.38526 1.7587176,-6.83718 5.4609376,-10.39453 3.88072,-3.72889 5.914062,-7.56387 5.914062,-11.46484 0,-3.90098 -2.033342,-7.73596 -5.914062,-11.46485 -3.70222,-3.55735 -5.4609376,-7.00927 -5.4609376,-10.39453 0,-3.38526 1.7587176,-6.83523 5.4609376,-10.39258 3.88072,-3.72888 5.914062,-7.563859 5.914062,-11.464839 0,-3.90098 -2.033342,-7.737907 -5.914062,-11.466797 -3.70222,-3.55735 -5.4609376,-7.007318 -5.4609376,-10.392578 0,-3.38525 1.7587176,-6.835228 5.4609376,-10.392578 3.880567,-3.72882 5.914062,-7.565896 5.914062,-11.466797 0,-0.487623 -0.03052,-0.973503 -0.09375,-1.458985 -0.442624,-3.398372 -2.424682,-6.74308 -5.820312,-10.005859 -3.70222,-3.55734 -5.4609376,-7.007328 -5.4609376,-10.392578 0,-3.38526 1.7587176,-6.837191 5.4609376,-10.394531 3.7022,-3.55736 7.304032,-5.25586 10.857422,-5.25586 3.55339,0 7.159108,1.698499 10.861328,5.25586 3.88072,3.72888 7.859132,5.671875 11.888672,5.671874 4.02954,0 8.007942,-1.942995 11.888672,-5.671874 3.70221,-3.55736 7.305975,-5.25586 10.859375,-5.25586 3.55339,0 7.157165,1.698499 10.859375,5.25586 3.88073,3.72888 7.859132,5.671875 11.888672,5.671874 4.02955,0 8.011849,-1.942995 11.892579,-5.671874 3.7022,-3.55736 7.30403,-5.25586 10.85742,-5.25586 3.5534,0 7.15912,1.698499 10.86133,5.25586 3.88072,3.72888 7.85717,5.671875 11.88671,5.671874 4.02954,0 7.62123,-1.497683 11.50196,-5.226562 l -0.9375,-1.125 c -3.70222,3.55736 -7.01107,4.865234 -10.56446,4.865234 -3.55339,0 -7.15522,-1.698499 -10.85742,-5.255859 -3.88073,-3.72888 -7.86107,-5.673828 -11.89062,-5.673828 -4.02954,0 -8.00795,1.944948 -11.88867,5.673828 -3.70221,3.55736 -7.307929,5.255859 -10.861329,5.255859 -3.55339,0 -7.157175,-1.698499 -10.859376,-5.255859 -3.880729,-3.72888 -7.859131,-5.673828 -11.888671,-5.673828 -4.02955,0 -8.005999,1.944948 -11.886719,5.673828 -3.70222,3.55736 -7.307938,5.255859 -10.861328,5.255859 -3.55339,0 -7.155212,-1.698499 -10.857422,-5.255859 -3.88073,-3.72888 -7.863038,-5.673828 -11.892578,-5.673828 z" />
  <!-- Bottom edge -->
  <!-- Left edge -->
  <!-- Right edge -->
</svg>
