<?xml version="1.0" encoding="UTF-8"?>
<!-- Do not edit this file with editors other than draw.io -->
<!DOCTYPE svg PUBLIC "-//W3C//DTD SVG 1.1//EN" "http://www.w3.org/Graphics/SVG/1.1/DTD/svg11.dtd">
<svg xmlns="http://www.w3.org/2000/svg" style="background: transparent; background-color: transparent; color-scheme: light dark;" xmlns:xlink="http://www.w3.org/1999/xlink" version="1.1" width="395px" height="652px" viewBox="0 0 395 652" content="&lt;mxfile host=&quot;app.diagrams.net&quot;&gt;&#10;  &lt;diagram name=&quot;Page-1&quot; id=&quot;lOhgK2YbE9u20FyryIms&quot;&gt;&#10;    &lt;mxGraphModel dx=&quot;821&quot; dy=&quot;619&quot; grid=&quot;1&quot; gridSize=&quot;10&quot; guides=&quot;1&quot; tooltips=&quot;1&quot; connect=&quot;1&quot; arrows=&quot;1&quot; fold=&quot;1&quot; page=&quot;1&quot; pageScale=&quot;1&quot; pageWidth=&quot;850&quot; pageHeight=&quot;1100&quot; math=&quot;0&quot; shadow=&quot;0&quot;&gt;&#10;      &lt;root&gt;&#10;        &lt;mxCell id=&quot;0&quot; /&gt;&#10;        &lt;mxCell id=&quot;1&quot; parent=&quot;0&quot; /&gt;&#10;        &lt;mxCell id=&quot;oKiNWD8JB2vNMXlibVfd-3&quot; parent=&quot;1&quot; style=&quot;rounded=1;whiteSpace=wrap;html=1;rotation=90.4;arcSize=10;perimeter=rectanglePerimeter;fixDash=0;strokeWidth=5;strokeColor=light-dark(#FF0E23,#DC143C);comic=1;linejoin=arcs;enumerate=0;shadow=0;fillColor=none;perimeterSpacing=23;&quot; value=&quot;&quot; vertex=&quot;1&quot;&gt;&#10;          &lt;mxGeometry height=&quot;384.68&quot; width=&quot;643.72&quot; x=&quot;110.85&quot; y=&quot;144.78&quot; as=&quot;geometry&quot; /&gt;&#10;        &lt;/mxCell&gt;&#10;      &lt;/root&gt;&#10;    &lt;/mxGraphModel&gt;&#10;  &lt;/diagram&gt;&#10;&lt;/mxfile&gt;&#10;"><defs/><g><g data-cell-id="0"><g data-cell-id="1"><g data-cell-id="oKiNWD8JB2vNMXlibVfd-3"><g transform="translate(0.5,0.5)"><path d="M -86.68 132.78 L -86.68 132.63 L -76.74 131.87 L -66.79 133.57 L -56.85 132.52 L -46.91 132.05 L -36.96 133.02 L -27.02 133.3 L -17.08 131.83 L -7.13 132.01 L 2.81 133.46 L 12.75 132.3 L 22.7 133.59 L 32.64 132.27 L 42.58 133.18 L 52.53 132.87 L 62.47 133.56 L 72.42 133.45 L 82.36 132.03 L 92.3 133.24 L 102.25 131.98 L 112.19 132.71 L 122.13 132.68 L 132.08 133 L 142.02 133.23 L 151.96 132.06 L 161.91 133.45 L 171.85 132.51 L 181.79 132.34 L 191.74 132.16 L 201.68 133.44 L 211.63 133.16 L 221.57 132.21 L 231.51 132.85 L 241.46 133.38 L 251.4 132.06 L 261.34 132.08 L 271.29 133.21 L 281.23 133.59 L 291.17 133.77 L 301.12 132.87 L 311.06 133.21 L 321 133.61 L 330.95 132.74 L 340.89 132.41 L 350.84 132.1 L 360.78 132.68 L 370.72 132.75 L 380.67 132.43 L 390.61 132.82 L 400.55 132.8 L 410.5 133.51 L 420.44 132.04 L 430.38 132.06 L 440.33 133.76 L 450.27 131.95 L 460.21 132.04 L 470.16 132.67 L 480.1 132.78 Q 518.57 132.78 518.57 171.25 L 518.75 171.25 L 518.4 181.18 L 518.07 191.1 L 518.61 201.03 L 519.25 210.96 L 519.33 220.88 L 517.69 230.81 L 519.43 240.74 L 519.1 250.67 L 518.9 260.59 L 517.95 270.52 L 517.89 280.45 L 518.5 290.37 L 519.31 300.3 L 519.31 310.23 L 518.02 320.16 L 519.47 330.08 L 518.09 340.01 L 518.46 349.94 L 519.31 359.87 L 519.55 369.79 L 519.5 379.72 L 519.34 389.65 L 519.29 399.57 L 518.56 409.5 L 518.21 419.43 L 518.24 429.36 L 517.61 439.28 L 519.56 449.21 L 518.79 459.14 L 518.26 469.06 L 518.57 478.99 Q 518.57 517.46 480.1 517.46 L 480.1 516.63 L 470.16 518.1 L 460.21 517.04 L 450.27 517.79 L 440.33 517.11 L 430.38 518.14 L 420.44 517.14 L 410.5 517.62 L 400.55 517.24 L 390.61 517.95 L 380.67 516.61 L 370.72 516.93 L 360.78 516.81 L 350.84 516.78 L 340.89 517.39 L 330.95 516.89 L 321 517.32 L 311.06 517.83 L 301.12 516.67 L 291.17 517.59 L 281.23 518.03 L 271.29 518.4 L 261.34 517.56 L 251.4 517.15 L 241.46 516.79 L 231.51 517.51 L 221.57 518.26 L 211.63 516.93 L 201.68 517.88 L 191.74 517.93 L 181.79 517.45 L 171.85 516.51 L 161.91 517.81 L 151.96 518 L 142.02 516.71 L 132.08 517.7 L 122.13 518.27 L 112.19 516.47 L 102.25 517.8 L 92.3 517.94 L 82.36 517.22 L 72.42 517.66 L 62.47 516.96 L 52.53 518.04 L 42.58 516.47 L 32.64 517.45 L 22.7 516.55 L 12.75 516.59 L 2.81 517.54 L -7.13 517.89 L -17.08 518.09 L -27.02 517.03 L -36.96 516.76 L -46.91 517.49 L -56.85 516.67 L -66.79 517.58 L -76.74 517.78 L -86.68 517.46 Q -125.15 517.46 -125.15 478.99 L -125.64 478.99 L -125.89 469.06 L -124.66 459.14 L -124.98 449.21 L -125.45 439.28 L -124.64 429.36 L -125.57 419.43 L -126.05 409.5 L -125.6 399.57 L -124.69 389.65 L -124.62 379.72 L -126 369.79 L -125.57 359.87 L -125.17 349.94 L -125.25 340.01 L -126.05 330.08 L -125.65 320.16 L -125.03 310.23 L -125.13 300.3 L -125.1 290.37 L -124.97 280.45 L -125.34 270.52 L -124.78 260.59 L -124.97 250.67 L -124.51 240.74 L -125.19 230.81 L -124.29 220.88 L -125.03 210.96 L -124.43 201.03 L -125.28 191.1 L -125.78 181.18 L -125.15 171.25 Q -125.15 132.78 -86.68 132.78 L -86.68 132.78 Z Z" fill="none" stroke="#ff0e23" stroke-width="5" stroke-linejoin="arcs" stroke-linecap="round" stroke-miterlimit="10" transform="rotate(90.4,196.71,325.12)" pointer-events="all" style="stroke: light-dark(rgb(255, 14, 35), rgb(220, 20, 60));"/></g></g></g></g></g></svg>